<svg width="280" height="560" viewBox="0 0 280 560" fill="none" xmlns="http://www.w3.org/2000/svg">
  <!-- iPhone Frame -->
  <rect x="2" y="2" width="276" height="556" rx="40" fill="#1C1C1E" stroke="#3A3A3C" stroke-width="4"/>

  <!-- Screen -->
  <rect x="12" y="12" width="256" height="536" rx="32" fill="#F5F9FA"/>

  <!-- Dynamic Island -->
  <rect x="90" y="20" width="100" height="28" rx="14" fill="#1C1C1E"/>

  <!-- Status Bar -->
  <text x="24" y="42" font-family="SF Pro, -apple-system, sans-serif" font-size="12" fill="#2C3E50">9:41</text>
  <text x="230" y="42" font-family="SF Pro, -apple-system, sans-serif" font-size="12" fill="#2C3E50">100%</text>

  <!-- App Header -->
  <rect x="12" y="56" width="256" height="50" fill="#4A90A4"/>
  <text x="140" y="88" font-family="SF Pro, -apple-system, sans-serif" font-size="18" font-weight="600" fill="white" text-anchor="middle">BruxControl</text>

  <!-- Card 1 - Status -->
  <rect x="24" y="120" width="232" height="80" rx="16" fill="white" filter="url(#shadow)"/>
  <text x="40" y="148" font-family="SF Pro, -apple-system, sans-serif" font-size="12" fill="#8E9BA3">쮺칩mo est치 tu mand칤bula?</text>
  <circle cx="56" cy="175" r="20" fill="#6BBF8A" opacity="0.2"/>
  <text x="56" y="180" font-family="SF Pro, -apple-system, sans-serif" font-size="16" fill="#6BBF8A" text-anchor="middle">游땗</text>
  <circle cx="108" cy="175" r="20" fill="#90CAD7" opacity="0.2"/>
  <text x="108" y="180" font-family="SF Pro, -apple-system, sans-serif" font-size="16" fill="#90CAD7" text-anchor="middle">游땛</text>
  <circle cx="160" cy="175" r="20" fill="#E8B75D" opacity="0.2"/>
  <text x="160" y="180" font-family="SF Pro, -apple-system, sans-serif" font-size="16" fill="#E8B75D" text-anchor="middle">游땳</text>
  <circle cx="212" cy="175" r="20" fill="#9B7DA0" opacity="0.2"/>
  <text x="212" y="180" font-family="SF Pro, -apple-system, sans-serif" font-size="16" fill="#9B7DA0" text-anchor="middle">游땠</text>

  <!-- Card 2 - Chart -->
  <rect x="24" y="216" width="232" height="120" rx="16" fill="white" filter="url(#shadow)"/>
  <text x="40" y="244" font-family="SF Pro, -apple-system, sans-serif" font-size="12" fill="#8E9BA3">Distribuci칩n Estado</text>

  <!-- Pie Chart -->
  <circle cx="90" cy="296" r="35" fill="none" stroke="#6BBF8A" stroke-width="12" stroke-dasharray="70 110"/>
  <circle cx="90" cy="296" r="35" fill="none" stroke="#90CAD7" stroke-width="12" stroke-dasharray="40 180" stroke-dashoffset="-70"/>
  <circle cx="90" cy="296" r="35" fill="none" stroke="#E8B75D" stroke-width="12" stroke-dasharray="30 190" stroke-dashoffset="-110"/>

  <!-- Legend -->
  <circle cx="160" cy="270" r="5" fill="#6BBF8A"/>
  <text x="172" y="274" font-family="SF Pro, -apple-system, sans-serif" font-size="10" fill="#2C3E50">Relajado</text>
  <circle cx="160" cy="290" r="5" fill="#90CAD7"/>
  <text x="172" y="294" font-family="SF Pro, -apple-system, sans-serif" font-size="10" fill="#2C3E50">Contacto</text>
  <circle cx="160" cy="310" r="5" fill="#E8B75D"/>
  <text x="172" y="314" font-family="SF Pro, -apple-system, sans-serif" font-size="10" fill="#2C3E50">Apretando</text>

  <!-- Card 3 - Daily Tip -->
  <rect x="24" y="352" width="232" height="80" rx="16" fill="white" filter="url(#shadow)"/>
  <circle cx="56" cy="392" r="20" fill="#6BBF8A" opacity="0.15"/>
  <text x="56" y="398" font-family="SF Pro, -apple-system, sans-serif" font-size="18" text-anchor="middle">游볭</text>
  <text x="90" y="382" font-family="SF Pro, -apple-system, sans-serif" font-size="10" fill="#8E9BA3">CONSEJO DEL D칈A</text>
  <text x="90" y="400" font-family="SF Pro, -apple-system, sans-serif" font-size="13" font-weight="600" fill="#2C5F72">Evita el chicle</text>
  <text x="90" y="416" font-family="SF Pro, -apple-system, sans-serif" font-size="10" fill="#8E9BA3">Causa tensi칩n muscular</text>

  <!-- Card 4 - Massage -->
  <rect x="24" y="448" width="232" height="80" rx="16" fill="white" filter="url(#shadow)"/>
  <circle cx="56" cy="488" r="20" fill="#E6A756" opacity="0.15"/>
  <text x="56" y="494" font-family="SF Pro, -apple-system, sans-serif" font-size="18" text-anchor="middle">游눉</text>
  <text x="90" y="478" font-family="SF Pro, -apple-system, sans-serif" font-size="10" fill="#8E9BA3">MASAJE RECOMENDADO</text>
  <text x="90" y="496" font-family="SF Pro, -apple-system, sans-serif" font-size="13" font-weight="600" fill="#2C5F72">Masetero</text>
  <text x="90" y="512" font-family="SF Pro, -apple-system, sans-serif" font-size="10" fill="#8E9BA3">M칰sculos de la mejilla</text>

  <!-- Tab Bar -->
  <rect x="12" y="504" width="256" height="44" fill="white"/>
  <line x1="12" y1="504" x2="268" y2="504" stroke="#E5E5EA" stroke-width="0.5"/>

  <defs>
    <filter id="shadow" x="-4" y="-2" width="240" height="90">
      <feDropShadow dx="0" dy="2" stdDeviation="4" flood-color="#2C5F72" flood-opacity="0.08"/>
    </filter>
  </defs>
</svg>
