<svg width="100" height="100" viewBox="0 0 100 100" fill="none" xmlns="http://www.w3.org/2000/svg">
  <!-- Background circle -->
  <circle cx="50" cy="50" r="45" fill="url(#gradient)"/>

  <!-- Stylized jaw/smile shape -->
  <path d="M30 45 C30 45, 35 55, 50 55 C65 55, 70 45, 70 45" stroke="white" stroke-width="4" stroke-linecap="round" fill="none"/>

  <!-- Upper teeth hint -->
  <path d="M35 40 L35 48" stroke="white" stroke-width="3" stroke-linecap="round"/>
  <path d="M45 38 L45 48" stroke="white" stroke-width="3" stroke-linecap="round"/>
  <path d="M55 38 L55 48" stroke="white" stroke-width="3" stroke-linecap="round"/>
  <path d="M65 40 L65 48" stroke="white" stroke-width="3" stroke-linecap="round"/>

  <!-- Relaxation waves -->
  <path d="M25 65 Q35 60, 45 65 Q55 70, 65 65 Q75 60, 75 65" stroke="white" stroke-width="2" stroke-linecap="round" fill="none" opacity="0.6"/>
  <path d="M30 72 Q40 67, 50 72 Q60 77, 70 72" stroke="white" stroke-width="2" stroke-linecap="round" fill="none" opacity="0.4"/>

  <defs>
    <linearGradient id="gradient" x1="0%" y1="0%" x2="100%" y2="100%">
      <stop offset="0%" stop-color="#4A90A4"/>
      <stop offset="100%" stop-color="#2C5F72"/>
    </linearGradient>
  </defs>
</svg>
